<svg xmlns="http://www.w3.org/2000/svg" viewBox="0 0 72 72"><defs><style>.cls-1{fill:#fff;}</style></defs><title>chevron-invert-right-fakecircle-white</title><g id="Layer_2" data-name="Layer 2"><g id="Noter"><path class="cls-1" d="M63,9C56.64,2.64,45,0,36,0S15.36,2.64,9,9,0,27,0,36,2.64,56.64,9,63s18,9,27,9,20.64-2.64,27-9,9-18,9-27S69.36,15.36,63,9ZM46.28,36.71l-1.41,1.41,0,0L32.55,50.43a1,1,0,0,1-1.41,0L29.72,49a1,1,0,0,1,0-1.41L41.32,36,29.72,24.4a1,1,0,0,1,0-1.41l1.41-1.41a1,1,0,0,1,1.41,0L44.82,33.84l0,0,1.41,1.41a1,1,0,0,1,0,1.43Z"/></g></g></svg>