<svg xmlns="http://www.w3.org/2000/svg" viewBox="0 0 72 72"><title>cross-invert-right-fakecircle-black</title><g id="Layer_2" data-name="Layer 2"><g id="Noter"><path d="M63,9C56.64,2.64,45,0,36,0S15.36,2.64,9,9,0,27,0,36,2.64,56.64,9,63s18,9,27,9,20.64-2.64,27-9,9-18,9-27S69.36,15.36,63,9ZM49.44,46.61a1,1,0,0,1,0,1.41L48,49.44a1,1,0,0,1-1.41,0L36,38.83,25.39,49.44a1,1,0,0,1-1.41,0L22.57,48a1,1,0,0,1,0-1.41L33.17,36,22.57,25.39a1,1,0,0,1,0-1.41L24,22.56a1,1,0,0,1,1.41,0L36,33.17,46.61,22.56a1,1,0,0,1,1.41,0L49.44,24a1,1,0,0,1,0,1.41L38.83,36Z"/></g></g></svg>