<svg xmlns="http://www.w3.org/2000/svg" viewBox="0 0 58.74 64.7"><defs><style>.cls-1{fill:#fff;}</style></defs><title>cross-shadow-white</title><g id="Layer_2" data-name="Layer 2"><g id="Noter"><path class="cls-1" d="M58.74,51.71,58,51,39.41,32.38,58.73,13.09V7h0L58,6.31,52.44.72,51.74,0,51,.72,29.38,22.34,7.72.71,7,0,6.31.71,0,7v5.75L19.51,32.2,0,51.7v6.11L7.07,64.7,29.54,42.26,51.74,64.43l7-7V51.74l-.1.08Zm-7,5.59h0l-.16-.16L29.37,34.94,7,57.28,1.42,51.69,23.77,29.35,1.42,7,7,1.41,29.38,23.75,51.74,1.43,57.33,7,35,29.36h0L57.33,51.71Z"/></g></g></svg>