<?xml version="1.0" encoding="utf-8"?>
<!-- Generator: Adobe Illustrator 19.1.0, SVG Export Plug-In . SVG Version: 6.00 Build 0)  -->
<svg version="1.1" id="Layer_1" xmlns="http://www.w3.org/2000/svg" xmlns:xlink="http://www.w3.org/1999/xlink" x="0px" y="0px"
	 viewBox="0 0 71.5 164.3" enable-background="new 0 0 71.5 164.3" xml:space="preserve">
<path d="M14.5,58.7H4.1c-1.4,0-3.6-2.3-3.6-3.8V27.4c0-1.8,2.3-1.8,3.6-1.8h10.4V6.1c0-1.4,1.8-2.6,3.3-2.8l34-3.3
	c1.6-0.2,2.6,1.4,2.6,2.8v22.9h4.4c2.4,0,3.6,0.7,4.1,2.2c1.5,4.8,6.1,21.1,7.7,25.9c1.1,3.4-0.9,4.9-2.5,4.9H54.5V140
	c0,1.6-0.2,2.6-1.8,2.6H18.3c-1.6,0-3.8-1.1-3.8-2.6V58.7z"/>
</svg>
