<?xml version="1.0" encoding="utf-8"?>
<!-- Generator: Adobe Illustrator 19.1.0, SVG Export Plug-In . SVG Version: 6.00 Build 0)  -->
<svg version="1.1" id="Layer_1" xmlns="http://www.w3.org/2000/svg" xmlns:xlink="http://www.w3.org/1999/xlink" x="0px" y="0px"
	 viewBox="0 0 108.1 164.3" enable-background="new 0 0 108.1 164.3" xml:space="preserve">
<path d="M64,68.3c-11.2,0-19.7,3.9-25.2,9.9c0-14.6,7.3-24.3,21.8-24.3c6,0,15.6,2,23.6,5.5c1.4,0.7,2.8-0.5,3.2-1.4l8.7-23.6
	c0.5-1.4-0.2-2.1-1.4-3c-10.3-6.6-24.3-9.9-36.4-9.9C25.5,21.5,1.2,47,1.2,85.3c0,40.1,22.5,59.6,57,59.6
	c27.1,0,47.6-15.2,47.6-41.1C105.7,80.2,88.9,68.3,64,68.3z M55.7,116.2c-8.9,0-14-4.4-14-11.7c2.5-5,8-7.8,14.7-7.8
	c7.3,0,12.2,3.7,12.2,9.4C68.6,112.1,63.5,116.2,55.7,116.2z"/>
</svg>
