<?xml version="1.0" encoding="utf-8"?>
<!-- Generator: Adobe Illustrator 19.1.0, SVG Export Plug-In . SVG Version: 6.00 Build 0)  -->
<svg version="1.1" id="Layer_1" xmlns="http://www.w3.org/2000/svg" xmlns:xlink="http://www.w3.org/1999/xlink" x="0px" y="0px"
	 viewBox="0 0 108.4 164.3" enable-background="new 0 0 108.4 164.3" xml:space="preserve">
<path fill="#FFFFFF" d="M58.5,25c-13.2,0-25.6,3.5-27,3.5l-3-3.7l-25.3,0c-1.6,0-2.8,1.4-2.8,2.9v131.7c0,1.4,1.1,2.5,2.6,2.5h30.5
	c1.6,0,2.8-1.1,2.8-2.5v-26.4c6,4.7,12.8,7.4,22,7.4c31.1,0,50.1-22.7,50.1-56.6C108.5,49.8,89.6,25,58.5,25z M52,103
	c-5.9,0-11.6-3.7-13.6-9.3V68.8c2-5.6,7.6-9.3,13.5-9.3c9.3,0,15.9,9.9,15.9,22.1C67.9,93.4,61.4,103,52,103z"/>
</svg>
