<?xml version="1.0" encoding="utf-8"?>
<!-- Generator: Adobe Illustrator 19.1.0, SVG Export Plug-In . SVG Version: 6.00 Build 0)  -->
<svg version="1.1" id="Layer_1" xmlns="http://www.w3.org/2000/svg" xmlns:xlink="http://www.w3.org/1999/xlink" x="0px" y="0px"
	 viewBox="0 0 113.8 164.3" enable-background="new 0 0 113.8 164.3" xml:space="preserve">
<path fill="#FFFFFF" d="M33.1,130.8c0.4,1.4,1.6,3.6,3.5,3.6h12c-1.5,6-2.7,21.7-3.5,24.7c-0.5,2,1,3.3,3,3.3h25
	c1.3,0,2.4-1,2.9-2.2c0.9-2.4,36.9-132.6,36.9-132.6c0.4-1.4-0.4-2.2-2.2-2.2H76.2c-1.4,0-3.2,0.2-3.5,2l-15,64.6L42.6,27.5
	c-0.6-1.6-2-2.2-3.7-2.2H3.4c-1.6,0-2.6,1-2,2.4L33.1,130.8z"/>
</svg>
