<?xml version="1.0" encoding="utf-8"?>
<!-- Generator: Adobe Illustrator 19.1.0, SVG Export Plug-In . SVG Version: 6.00 Build 0)  -->
<svg version="1.1" id="Layer_1" xmlns="http://www.w3.org/2000/svg" xmlns:xlink="http://www.w3.org/1999/xlink" x="0px" y="0px"
	 viewBox="0 0 115.1 164.3" enable-background="new 0 0 115.1 164.3" xml:space="preserve">
<path fill="#FFFFFF" d="M60,22C23.2,22,1,46.7,1,83.5c0,36.5,22.7,58.9,60.1,58.9c16.3,0,30.3-4.4,41.5-11.8
	c1.5-0.8,1.9-1.7,1.5-3.2l-9.1-22c-0.4-1.5-1.7-2.3-3.2-1.6c-9.5,4.4-19.3,7.4-30.1,7.4c-17.7,0-17.7-14.8-17.7-14.8h65.6
	c1.9,0,3-1.4,3.2-3.1c0.6-3.2,0.8-4.7,0.8-7.9C113.5,46.9,95.1,22,60,22z M43.7,74.3c0-12,5.5-17.9,15-17.9c8.4,0,15,3.9,15,17.9
	H43.7z"/>
</svg>
