<?xml version="1.0" encoding="utf-8"?>
<!-- Generator: Adobe Illustrator 19.1.0, SVG Export Plug-In . SVG Version: 6.00 Build 0)  -->
<svg version="1.1" id="Layer_1" xmlns="http://www.w3.org/2000/svg" xmlns:xlink="http://www.w3.org/1999/xlink" x="0px" y="0px"
	 viewBox="0 0 71.5 164.3" enable-background="new 0 0 71.5 164.3" xml:space="preserve">
<path fill="#FFFFFF" d="M14,58.3H4.1c-1.4,0-4.1-1.9-4.1-3.5V27.4c0-1.8,2.7-2.1,4.1-2.1H14V6.1c0-1.4,2-2.6,3.6-2.8L51.5,0
	C53.1-0.2,54,1.4,54,2.8v22.6h4.9c2.4,0,3.6,0.9,4.1,2.4c1.5,4.8,6.1,21.1,7.7,25.8c1.1,3.4-0.9,4.8-2.5,4.8H54V140
	c0,1.6,0.2,2.3-1.3,2.3H18.3c-1.6,0-4.3-0.7-4.3-2.3V58.3z"/>
</svg>
