<svg xmlns="http://www.w3.org/2000/svg" viewBox="0 0 619.75 911.57"><defs><style>.cls-1{fill:#fff;}.cls-2{fill:#b4b5b9;}.cls-3{fill:#262626;}</style></defs><title>Asset 3</title><g id="Layer_2" data-name="Layer 2"><g id="Layer_1-2" data-name="Layer 1"><rect class="cls-1" x="15.82" y="59.39" width="588.11" height="784.15"/><path class="cls-2" d="M585.58,911.57H34.17A34.19,34.19,0,0,1,0,877.41V34.17A34.19,34.19,0,0,1,34.17,0H585.58a34.19,34.19,0,0,1,34.17,34.17V877.41A34.19,34.19,0,0,1,585.58,911.57Z"/><path d="M616.68,876.93a31.25,31.25,0,0,1-31.3,31.3h-551a31.25,31.25,0,0,1-31.3-31.3V34.17a31.25,31.25,0,0,1,31.3-31.3h551a31.25,31.25,0,0,1,31.3,31.3Z"/><circle class="cls-3" cx="309.87" cy="30.34" r="3.36"/><path class="cls-3" d="M309.87,857a18.38,18.38,0,1,0,18.38,18.38A18.38,18.38,0,0,0,309.87,857Zm0,34.93a16.46,16.46,0,1,1,16.46-16.46A16.46,16.46,0,0,1,309.87,892Z"/><rect class="cls-1" x="15.82" y="59.39" width="588.11" height="784.15"/></g></g></svg>