<?xml version="1.0" encoding="utf-8"?>
<!-- Generator: Adobe Illustrator 19.1.0, SVG Export Plug-In . SVG Version: 6.00 Build 0)  -->
<svg version="1.1" id="Layer_1" xmlns="http://www.w3.org/2000/svg" xmlns:xlink="http://www.w3.org/1999/xlink" x="0px" y="0px"
	 viewBox="0 0 247.4 510.5" enable-background="new 0 0 247.4 510.5" xml:space="preserve">
<g>
	<path fill="#B4B5B9" d="M211.7,510.5h-176C16,510.5,0,494.5,0,474.8V35.7C0,16,16,0,35.7,0h176c19.7,0,35.7,16,35.7,35.7v439.1
		C247.4,494.5,231.4,510.5,211.7,510.5z"/>
	<path d="M244,474.3c0,18.1-14.6,32.7-32.7,32.7H35.7C17.6,507,3,492.4,3,474.3V35.7C3,17.6,17.6,3,35.7,3h175.6
		C229.4,3,244,17.6,244,35.7V474.3z"/>
	<rect x="15" y="61.4" fill="#FFFFFF" width="217.3" height="387.3"/>
	<path fill="#262626" d="M141.3,33.4h-35.3c-1,0-1.8-0.8-1.8-1.7v0c0-1,0.8-1.7,1.8-1.7h35.3c1,0,1.7,0.8,1.7,1.7v0
		C143.1,32.6,142.3,33.4,141.3,33.4z"/>
	<path fill="#262626" d="M123.7,457.9c-10.6,0-19.2,8.6-19.2,19.2s8.6,19.2,19.2,19.2s19.2-8.6,19.2-19.2S134.3,457.9,123.7,457.9z
		 M123.7,494.4c-9.5,0-17.2-7.7-17.2-17.2s7.7-17.2,17.2-17.2s17.2,7.7,17.2,17.2S133.2,494.4,123.7,494.4z"/>
</g>
</svg>
