<svg xmlns="http://www.w3.org/2000/svg" xmlns:xlink="http://www.w3.org/1999/xlink" viewBox="0 0 1790.38 1485.33"><defs><style>.cls-1{fill:#fff;}.cls-2{fill:url(#linear-gradient);}.cls-3{fill:#dddedf;}</style><linearGradient id="linear-gradient" x1="-8547.55" y1="1485.33" x2="-8547.55" y2="1223.46" gradientTransform="matrix(-1, 0, 0, 1, -7654, 0)" gradientUnits="userSpaceOnUse"><stop offset="0" stop-color="#d1d1d3"/><stop offset="0.04" stop-color="#cfcfd1"/><stop offset="0.05" stop-color="#c8c9cc"/><stop offset="0.06" stop-color="#bdbdc2"/><stop offset="0.06" stop-color="#b9babf"/><stop offset="0.24" stop-color="#b9babf"/><stop offset="0.4" stop-color="#f9fafb"/><stop offset="0.46" stop-color="#f9fafb"/><stop offset="0.65" stop-color="#dddee0"/><stop offset="0.87" stop-color="#c3c4c8"/><stop offset="1" stop-color="#b9babf"/></linearGradient></defs><title>mac</title><g id="Layer_2" data-name="Layer 2"><g id="Layer_1-2" data-name="Layer 1"><path d="M1744.39,0H46A46,46,0,0,0,0,46V1067.66H1790.38V46A46,46,0,0,0,1744.39,0Z"/><rect class="cls-1" x="429.5" y="-292.04" width="932" height="1655" transform="translate(1430.96 -360.04) rotate(90)"/><path class="cls-2" d="M892.77,1485.33c210.25,0,266.87-.94,270.15-10.79s-52.56-30-72.27-58-19.71-193.12-19.71-193.12H716.15s0,165.2-19.71,193.12-75.56,48.1-72.27,58S682.53,1485.33,892.77,1485.33Z"/><path class="cls-3" d="M0,1067.66V1180a46,46,0,0,0,46,46H1744.39a46,46,0,0,0,46-46V1067.66Z"/></g></g></svg>